<svg version="1.1" id="Layer_1" xmlns="http://www.w3.org/2000/svg" xmlns:xlink="http://www.w3.org/1999/xlink" x="0px" y="0px"
	 width="100%" viewBox="0 0 274 96" enable-background="new 0 0 274 96" xml:space="preserve">
<path fill="#ffff" opacity="1.000000" stroke="none" 
	d="
M62.000000,1.000000 
	C132.957840,1.000000 203.915665,1.000000 274.936768,1.000000 
	C274.936768,32.938732 274.936768,64.877617 274.936768,96.908249 
	C183.782150,96.908249 92.564178,96.908249 1.173105,96.908249 
	C1.173105,65.000687 1.173105,33.000469 1.173105,1.000000 
	C20.085218,1.000000 39.073952,1.000000 58.801102,1.340477 
	C57.374779,5.478050 55.210037,9.275146 53.040005,13.055983 
	C53.034714,13.039721 53.064262,13.027439 52.770157,13.107777 
	C51.983524,13.808208 51.490997,14.428300 51.012280,15.048704 
	C51.026089,15.049016 51.045319,15.068849 50.791878,15.121191 
	C50.382980,15.464930 50.227524,15.756326 50.037659,16.023777 
	C50.003250,15.999834 50.058846,16.062408 49.765820,16.145615 
	C48.960278,16.847944 48.447765,17.467066 47.734123,18.098936 
	C47.532997,18.111687 47.130032,18.102896 46.991615,17.783257 
	C44.264999,14.968165 41.676792,12.472715 39.034615,9.662975 
	C38.814793,8.706254 38.648945,8.063825 38.483097,7.421395 
	C38.304066,7.602345 38.125034,7.783293 37.628448,7.877263 
	C36.584003,8.877584 35.857109,9.964882 35.002808,11.351177 
	C34.565338,12.411714 34.255283,13.173253 33.592922,14.005672 
	C32.811581,14.284481 32.091969,14.402740 31.996075,14.713477 
	C29.707438,22.129780 24.635403,23.271681 17.955282,21.153820 
	C16.916599,20.824516 15.683704,21.107792 14.709108,21.107792 
	C13.993535,19.684090 13.704438,18.087954 12.796040,17.562536 
	C11.685262,16.920065 10.055229,17.175337 8.649731,17.042408 
	C8.802504,18.651098 8.354588,21.141039 9.207579,21.722466 
	C13.992694,24.984158 15.234324,30.122572 16.752121,35.154106 
	C14.967787,37.213951 13.493935,39.117462 12.010090,41.010868 
	C12.000098,41.000763 12.023195,41.015877 11.673843,41.176781 
	C10.643065,43.252693 9.535921,45.129025 9.357767,47.089760 
	C8.754566,53.728466 10.879170,59.533566 16.787514,62.904598 
	C21.400757,65.536713 26.567768,66.336609 31.423790,62.571716 
	C31.504469,62.525585 31.626102,62.385044 31.946613,62.258980 
	C33.369835,61.488987 34.472546,60.845066 36.098164,59.895798 
	C35.276970,65.165337 38.550362,64.934250 41.899097,64.756714 
	C46.109703,64.533463 44.647755,61.361752 44.771847,59.173100 
	C44.950672,56.019279 45.054104,52.820492 44.696907,49.697254 
	C44.556404,48.468758 43.166862,46.501316 42.208752,46.416180 
	C39.512001,46.176533 36.743908,46.739685 34.001453,46.993019 
	C33.998962,46.999706 33.980751,46.995296 33.605804,46.963211 
	C32.485447,46.995541 31.740034,47.059956 30.758339,47.070007 
	C30.522057,47.015644 30.038448,46.980038 29.865154,46.733627 
	C28.797173,46.636269 27.902483,46.785324 26.667908,47.133362 
	C26.202551,49.952759 26.077084,52.573166 25.602440,55.129532 
	C23.793438,54.081860 22.333614,53.098228 20.833138,51.883156 
	C20.792486,51.651722 20.600067,51.222958 20.714771,50.869087 
	C20.871038,48.663113 20.912600,46.811008 20.977081,44.979374 
	C21.000000,44.999847 20.953442,44.960205 21.300694,44.832924 
	C24.716341,42.063080 28.081503,41.016144 31.948957,42.844246 
	C37.004021,45.233723 39.793610,44.582897 43.826359,39.673241 
	C45.774773,38.413025 47.622257,37.538460 49.707138,36.551514 
	C49.445522,38.168526 49.295761,39.094193 49.095627,40.025322 
	C49.045261,40.030785 49.052990,40.131817 48.779221,40.175056 
	C48.473343,40.549747 48.441238,40.881191 48.331425,41.432732 
	C48.253716,41.652824 48.154427,42.108963 47.772057,42.296104 
	C47.617401,46.624352 47.845108,50.765461 48.140434,55.142494 
	C48.208057,55.378422 48.359795,55.845230 48.265549,56.109940 
	C48.454380,56.586025 48.737461,56.797401 49.117756,57.337349 
	C51.165890,59.350323 53.045181,61.127434 55.081848,62.700840 
	C60.144966,66.612297 65.779816,64.138046 71.155785,63.859665 
	C78.603722,63.473988 83.498100,57.915009 83.792480,50.050323 
	C84.137627,40.829544 80.063370,35.252163 71.833649,33.639549 
	C67.795334,32.552620 63.987415,31.821001 60.591469,31.011646 
	C61.309582,30.419127 61.878544,29.906542 61.882885,29.389217 
	C61.962273,19.926483 61.973953,10.463181 62.000000,1.000000 
M239.007858,56.995094 
	C239.007858,56.995094 238.979752,56.988686 238.936966,57.780090 
	C239.303253,59.230103 239.669556,60.680111 240.136215,62.879307 
	C243.717682,63.268322 247.299133,63.657333 251.628769,63.782566 
	C251.967255,61.782345 252.305740,59.782124 252.765686,57.397892 
	C252.765686,57.397892 252.872986,57.009686 253.560181,56.738129 
	C253.807510,56.035973 254.054840,55.333817 254.344467,54.511593 
	C254.994888,57.728386 255.612244,60.781609 256.896576,64.296753 
	C259.454987,64.380798 262.050598,64.735901 264.550323,64.392662 
	C265.357086,64.281891 266.545898,62.295910 266.480225,61.234550 
	C266.002319,53.510796 265.255920,45.803474 264.578644,38.092342 
	C264.318237,35.128086 263.241882,33.179516 259.699890,33.358086 
	C248.906342,33.902256 247.854187,30.583601 247.075912,44.386456 
	C247.066559,44.552189 247.039246,44.716911 246.405090,45.233566 
	C245.929108,44.985641 245.193604,44.851082 245.026398,44.468288 
	C244.546967,43.370659 244.297760,42.172459 243.991684,41.002514 
	C243.991684,41.002514 243.972412,41.032005 243.994202,40.243099 
	C243.648529,38.834610 243.302856,37.426117 242.993958,36.001770 
	C242.993958,36.001770 242.969101,36.032776 242.953812,35.233261 
	C239.015244,31.218735 234.000168,33.036758 229.707397,33.683990 
	C228.418991,33.878254 227.828400,39.161907 227.073349,42.153183 
	C226.844879,43.058342 227.137878,44.095127 226.817444,45.816982 
	C226.522354,51.876530 226.227264,57.936077 226.446121,64.666595 
	C228.095886,64.754875 229.761383,64.728897 231.392380,64.953506 
	C235.751282,65.553795 237.343155,63.752831 237.050476,59.392838 
	C236.888870,56.985790 237.691391,54.514019 238.148727,52.445545 
	C238.148727,52.445545 238.246170,52.817661 238.020676,53.574711 
	C238.347229,54.724121 238.673798,55.873535 239.007858,56.995094 
M88.877419,61.739849 
	C96.461967,64.590813 104.257256,65.633789 112.258301,64.119858 
	C116.557076,63.306454 119.927406,61.030853 120.902412,56.485172 
	C121.779663,52.395241 120.767609,48.845303 116.954025,46.859730 
	C118.316505,43.624592 119.607285,40.559689 120.836311,37.641438 
	C113.385086,32.065899 98.984840,32.153423 93.136757,34.686451 
	C89.583633,36.225445 87.457489,38.949013 87.208458,43.022358 
	C86.976784,46.811901 88.293068,49.766953 92.047073,50.614151 
	C95.819901,51.465588 99.773544,51.489162 103.630577,52.005310 
	C105.573235,52.265274 107.477409,52.812813 109.398994,53.230316 
	C109.213982,54.077591 109.028969,54.924866 108.843956,55.772141 
	C104.134430,54.958778 99.440727,54.025875 94.706520,53.398861 
	C93.114426,53.187996 90.401413,53.230747 89.969986,54.068607 
	C88.858070,56.228035 88.734718,58.896500 88.877419,61.739849 
M190.991882,34.094521 
	C184.912964,33.354656 179.565704,34.101616 176.368393,40.356079 
	C175.570938,41.916061 173.794052,42.975357 171.751541,44.960430 
	C171.751541,41.350040 171.872711,39.017879 171.696335,36.708439 
	C171.617599,35.677315 171.021973,33.871399 170.522110,33.822014 
	C167.772064,33.550293 164.852615,33.263729 162.274597,33.989105 
	C161.455719,34.219509 161.335281,37.530323 161.204041,39.452610 
	C161.045883,41.769489 161.236359,44.108780 161.241104,46.438442 
	C161.252930,52.234661 161.244995,58.030922 161.244995,64.446289 
	C163.253632,64.446289 165.035568,64.228424 166.743256,64.491913 
	C170.234024,65.030533 171.887405,64.271988 171.940445,60.186310 
	C171.966278,58.197414 174.137772,56.236385 175.649384,53.750690 
	C178.448288,57.790485 179.973862,62.142841 182.963898,63.721588 
	C186.147095,65.402313 190.716568,64.457542 196.133850,64.732986 
	C191.829681,58.937225 188.824005,54.463905 185.359207,50.380138 
	C183.191238,47.824867 183.588242,46.274822 185.858490,44.206413 
	C189.043472,41.304588 191.954697,38.102291 195.702164,34.298580 
	C193.454681,34.184341 192.641830,34.143024 190.991882,34.094521 
M205.213409,49.474205 
	C205.213409,51.274231 205.213409,53.074257 205.213409,55.040932 
	C204.010635,55.140617 203.188644,55.363205 202.418365,55.245979 
	C198.989426,54.724163 197.286835,56.645782 197.487457,59.591309 
	C197.673340,62.320641 198.119736,65.278114 202.621140,64.807129 
	C207.891251,64.255714 213.266968,64.509468 218.586151,64.705284 
	C221.951401,64.829170 223.127686,63.478024 222.699570,60.290977 
	C222.486649,58.705753 222.410278,57.102188 222.267029,55.448170 
	C219.840927,55.293682 217.927979,55.171875 216.022339,55.050529 
	C216.022339,50.717949 216.022339,46.804840 216.022339,42.846706 
	C216.996353,42.773361 217.678879,42.587872 218.310913,42.696415 
	C222.044846,43.337658 222.673737,41.462563 222.779358,38.160599 
	C222.897995,34.452137 221.744278,33.069283 218.007965,33.264519 
	C213.357620,33.507519 208.685394,33.335972 204.022629,33.336262 
	C198.180573,33.336624 196.930511,34.401077 198.431229,39.937473 
	C198.896347,41.653362 202.275055,42.579475 205.215118,44.430984 
	C205.215118,44.914474 205.215118,46.714146 205.213409,49.474205 
M123.578506,62.891724 
	C126.940689,66.408974 130.778336,64.407936 134.632675,64.531418 
	C132.826233,55.475651 133.847046,55.446285 142.026688,53.753551 
	C149.576431,52.191174 148.284454,56.383865 147.986099,60.290001 
	C147.673141,64.387108 149.683334,65.093842 153.063202,64.854393 
	C156.027451,64.644386 159.124252,65.309837 158.940689,60.469391 
	C158.650543,52.817696 158.644562,45.138420 158.945877,37.487652 
	C159.116333,33.159492 156.823013,33.088047 153.656509,33.138897 
	C150.464508,33.190147 147.836548,32.921215 147.957947,37.635601 
	C148.156708,45.354225 146.898666,46.162510 139.300659,44.745850 
	C137.886597,44.482197 136.495132,44.097252 134.810745,43.701992 
	C134.810745,41.430515 134.878143,39.285023 134.796341,37.145229 
	C134.638687,33.020878 131.630646,33.162937 128.709427,33.141521 
	C125.862839,33.120651 123.014481,33.407612 123.057648,37.065872 
	C123.119728,42.326775 123.767700,47.579380 123.879730,52.841610 
	C123.945648,55.938004 123.458405,59.046165 123.578506,62.891724 
z"/>
<path fill="#77C377" opacity="1.000000" stroke="none" 
	d="
M53.045296,13.072245 
	C55.210037,9.275146 57.374779,5.478050 59.269760,1.340477 
	C59.750000,1.000000 60.500000,1.000000 61.625000,1.000000 
	C61.973953,10.463181 61.962273,19.926483 61.882885,29.389217 
	C61.878544,29.906542 61.309582,30.419127 60.498421,30.999033 
	C59.993404,31.064150 59.818333,30.995434 59.908405,30.764267 
	C59.998478,30.533102 60.046028,30.039196 60.034245,30.028843 
	C60.022461,30.018492 60.035812,30.029716 60.318699,29.736214 
	C60.628418,26.302109 60.655251,23.161503 60.708893,19.648239 
	C60.710133,18.529404 60.684551,17.783224 60.750420,16.677122 
	C60.617592,15.153007 60.393314,13.988815 60.179375,12.514743 
	C60.156116,11.793098 60.122520,11.381334 60.063484,10.654835 
	C58.982121,10.522495 57.926193,10.704893 56.584743,11.040448 
	C55.214581,11.819819 54.129940,12.446033 53.045296,13.072245 
z"/>
<path fill="#ffff" opacity="1.000000" stroke="none" 
	d="
M238.246170,52.817661 
	C238.246170,52.817661 238.148727,52.445545 238.165649,51.849731 
	C237.721222,49.233669 237.259903,47.213417 236.798584,45.193161 
	C235.871353,48.354084 235.989334,51.346958 235.838684,54.326244 
	C235.683228,57.400803 235.266449,60.462147 234.917999,63.995625 
	C231.523346,63.995625 228.727768,63.995625 225.932159,63.995625 
	C226.227264,57.936077 226.522354,51.876530 227.242722,45.128876 
	C227.934128,42.325226 227.974457,40.145432 228.551239,38.118267 
	C228.896255,36.905666 230.093369,34.997784 230.886414,35.008194 
	C234.917755,35.061123 238.942230,35.638844 242.969101,36.032776 
	C242.969101,36.032776 242.993958,36.001770 242.888184,36.394188 
	C243.179077,38.201736 243.575745,39.616871 243.972412,41.032005 
	C243.972412,41.032005 243.991684,41.002514 243.876587,41.437988 
	C244.143280,45.011665 244.525055,48.149864 244.906845,51.288067 
	C245.361725,51.293686 245.816620,51.299309 246.271515,51.304932 
	C246.521118,49.163986 246.770706,47.023045 247.020309,44.882103 
	C247.039246,44.716911 247.066559,44.552189 247.075912,44.386456 
	C247.854187,30.583601 248.906342,33.902256 259.699890,33.358086 
	C263.241882,33.179516 264.318237,35.128086 264.578644,38.092342 
	C265.255920,45.803474 266.002319,53.510796 266.480225,61.234550 
	C266.545898,62.295910 265.357086,64.281891 264.550323,64.392662 
	C262.050598,64.735901 259.454987,64.380798 256.527344,63.611954 
	C255.849350,57.572540 255.540619,52.217922 255.231888,46.863304 
	C254.841507,46.858238 254.451126,46.853168 254.060730,46.848103 
	C253.664825,50.235298 253.268921,53.622494 252.872986,57.009689 
	C252.872986,57.009686 252.765686,57.397892 252.459793,57.861725 
	C251.729477,60.232491 251.305038,62.139420 250.880600,64.046349 
	C247.299133,63.657333 243.717682,63.268322 240.154266,62.107224 
	C239.774796,59.886326 239.377274,58.437508 238.979736,56.988686 
	C238.979752,56.988686 239.007858,56.995094 239.072937,56.646179 
	C238.840744,55.137398 238.543457,53.977528 238.246170,52.817661 
z"/>
<path fill="#ffff" opacity="1.000000" stroke="none" 
	d="
M88.546921,61.550724 
	C88.734718,58.896500 88.858070,56.228035 89.969986,54.068607 
	C90.401413,53.230747 93.114426,53.187996 94.706520,53.398861 
	C99.440727,54.025875 104.134430,54.958778 108.843956,55.772141 
	C109.028969,54.924866 109.213982,54.077591 109.398994,53.230316 
	C107.477409,52.812813 105.573235,52.265274 103.630577,52.005310 
	C99.773544,51.489162 95.819901,51.465588 92.047073,50.614151 
	C88.293068,49.766953 86.976784,46.811901 87.208458,43.022358 
	C87.457489,38.949013 89.583633,36.225445 93.136757,34.686451 
	C98.984840,32.153423 113.385086,32.065899 120.836311,37.641438 
	C119.607285,40.559689 118.316505,43.624592 116.954025,46.859730 
	C120.767609,48.845303 121.779663,52.395241 120.902412,56.485172 
	C119.927406,61.030853 116.557076,63.306454 112.258301,64.119858 
	C104.257256,65.633789 96.461967,64.590813 88.546921,61.550724 
M108.670776,42.607895 
	C105.280075,41.765484 101.850853,40.515945 98.825928,44.456253 
	C103.851028,44.456253 108.876122,44.456253 113.901222,44.456253 
	C113.945450,44.302525 113.989677,44.148792 114.033897,43.995064 
	C112.543427,43.536629 111.052948,43.078194 108.670776,42.607895 
z"/>
<path fill="#ffff" opacity="1.000000" stroke="none" 
	d="
M48.154427,42.108963 
	C48.154427,42.108963 48.253716,41.652824 48.572124,41.355110 
	C48.944687,40.748871 48.998837,40.440342 49.052990,40.131817 
	C49.052990,40.131817 49.045261,40.030785 49.422016,39.948639 
	C53.533516,35.361767 58.171677,33.160156 64.147369,33.860687 
	C66.755661,34.166466 69.423332,33.965626 72.064041,33.994858 
	C80.063370,35.252163 84.137627,40.829544 83.792480,50.050323 
	C83.498100,57.915009 78.603722,63.473988 71.155785,63.859665 
	C65.779816,64.138046 60.144966,66.612297 55.081848,62.700840 
	C53.045181,61.127434 51.165890,59.350323 49.134499,57.084892 
	C48.822609,56.284317 48.591202,56.064774 48.359795,55.845230 
	C48.359795,55.845230 48.208057,55.378422 48.226242,54.691631 
	C48.214428,50.039547 48.184429,46.074257 48.154427,42.108963 
M73.227585,50.285511 
	C73.102753,43.619698 71.388733,42.354347 63.307545,42.962212 
	C58.853386,43.297256 56.599770,46.054630 57.862595,50.702427 
	C58.337849,52.451603 60.611019,54.734062 62.282829,54.932262 
	C66.260170,55.403793 71.125420,56.842945 73.227585,50.285511 
z"/>
<path fill="#ffff" opacity="1.000000" stroke="none" 
	d="
M191.410431,34.098114 
	C192.641830,34.143024 193.454681,34.184341 195.702164,34.298580 
	C191.954697,38.102291 189.043472,41.304588 185.858490,44.206413 
	C183.588242,46.274822 183.191238,47.824867 185.359207,50.380138 
	C188.824005,54.463905 191.829681,58.937225 196.133850,64.732986 
	C190.716568,64.457542 186.147095,65.402313 182.963898,63.721588 
	C179.973862,62.142841 178.448288,57.790485 175.649384,53.750690 
	C174.137772,56.236385 171.966278,58.197414 171.940445,60.186310 
	C171.887405,64.271988 170.234024,65.030533 166.743256,64.491913 
	C165.035568,64.228424 163.253632,64.446289 161.244995,64.446289 
	C161.244995,58.030922 161.252930,52.234661 161.241104,46.438442 
	C161.236359,44.108780 161.045883,41.769489 161.204041,39.452610 
	C161.335281,37.530323 161.455719,34.219509 162.274597,33.989105 
	C164.852615,33.263729 167.772064,33.550293 170.522110,33.822014 
	C171.021973,33.871399 171.617599,35.677315 171.696335,36.708439 
	C171.872711,39.017879 171.751541,41.350040 171.751541,44.960430 
	C173.794052,42.975357 175.570938,41.916061 176.368393,40.356079 
	C179.565704,34.101616 184.912964,33.354656 191.410431,34.098114 
z"/>
<path fill="#F8D664" opacity="1.000000" stroke="none" 
	d="
M60.658974,17.037046 
	C60.684551,17.783224 60.710133,18.529404 60.488464,19.973183 
	C60.172752,23.790426 60.104282,26.910072 60.035812,30.029716 
	C60.035812,30.029716 60.022461,30.018492 59.653740,30.012672 
	C57.535374,30.668139 55.785725,31.329424 54.025036,32.002995 
	C54.013996,32.015282 53.985161,32.031403 53.665970,32.056087 
	C52.894424,32.717239 52.442070,33.353706 51.597214,34.006443 
	C47.800671,34.716003 44.396633,35.409294 40.623352,36.012215 
	C33.462803,32.681240 26.381956,32.489365 19.039509,33.573662 
	C17.946560,31.352900 17.044647,29.426003 15.958183,27.609486 
	C13.937027,24.230206 14.967688,22.159889 18.724035,23.003584 
	C26.083643,24.656591 31.257593,23.109661 33.338390,15.240472 
	C33.459175,14.783696 33.739269,14.369046 33.945225,13.934792 
	C34.255283,13.173253 34.565338,12.411714 35.373627,11.324245 
	C38.237450,12.942135 40.507523,15.023045 43.011765,16.767874 
	C44.144623,17.557192 45.742901,17.678520 47.130032,18.102896 
	C47.130032,18.102896 47.532997,18.111687 48.074814,18.084139 
	C49.097374,17.391863 49.578110,16.727137 50.058846,16.062408 
	C50.058846,16.062408 50.003250,15.999834 50.291763,15.972282 
	C50.735291,15.652770 50.890305,15.360809 51.045319,15.068849 
	C51.045319,15.068849 51.026089,15.049016 51.344116,15.032316 
	C52.129517,14.352890 52.596889,13.690164 53.064262,13.027439 
	C53.064262,13.027439 53.034714,13.039721 53.040005,13.055983 
	C54.129940,12.446033 55.214581,11.819819 56.986427,11.084734 
	C58.478729,10.973764 59.283825,10.971668 60.088921,10.969572 
	C60.122520,11.381334 60.156116,11.793098 60.109169,12.883943 
	C60.238739,14.721031 60.448856,15.879039 60.658974,17.037046 
z"/>
<path fill="#ffff" opacity="1.000000" stroke="none" 
	d="
M205.214264,48.994011 
	C205.215118,46.714146 205.215118,44.914474 205.215118,44.430984 
	C202.275055,42.579475 198.896347,41.653362 198.431229,39.937473 
	C196.930511,34.401077 198.180573,33.336624 204.022629,33.336262 
	C208.685394,33.335972 213.357620,33.507519 218.007965,33.264519 
	C221.744278,33.069283 222.897995,34.452137 222.779358,38.160599 
	C222.673737,41.462563 222.044846,43.337658 218.310913,42.696415 
	C217.678879,42.587872 216.996353,42.773361 216.022339,42.846706 
	C216.022339,46.804840 216.022339,50.717949 216.022339,55.050529 
	C217.927979,55.171875 219.840927,55.293682 222.267029,55.448170 
	C222.410278,57.102188 222.486649,58.705753 222.699570,60.290977 
	C223.127686,63.478024 221.951401,64.829170 218.586151,64.705284 
	C213.266968,64.509468 207.891251,64.255714 202.621140,64.807129 
	C198.119736,65.278114 197.673340,62.320641 197.487457,59.591309 
	C197.286835,56.645782 198.989426,54.724163 202.418365,55.245979 
	C203.188644,55.363205 204.010635,55.140617 205.213409,55.040932 
	C205.213409,53.074257 205.213409,51.274231 205.214264,48.994011 
z"/>
<path fill="#ffff" opacity="1.000000" stroke="none" 
	d="
M20.600067,51.222958 
	C20.600067,51.222958 20.792486,51.651722 20.795105,52.275017 
	C22.231647,54.207874 23.543545,56.415443 25.126202,56.630508 
	C27.973133,57.017380 30.982441,56.209328 33.971130,55.959831 
	C34.018353,56.019161 34.123707,56.128246 34.125793,56.494755 
	C33.293957,58.702522 32.460030,60.543785 31.626102,62.385044 
	C31.626102,62.385044 31.504469,62.525585 31.021633,62.415958 
	C21.487616,65.016335 12.460407,62.281345 11.504681,49.267094 
	C11.304709,46.544064 11.831377,43.767677 12.023195,41.015877 
	C12.023195,41.015877 12.000098,41.000763 12.346701,40.975494 
	C14.753474,39.277023 16.813643,37.603817 19.317877,35.953281 
	C27.123558,34.103905 34.189636,35.363918 41.302460,38.228508 
	C41.806343,38.954681 42.134403,39.444260 42.105644,40.087242 
	C38.601589,41.962914 35.822536,43.298874 31.791409,41.452816 
	C26.929852,39.226460 22.318329,41.295345 20.953442,44.960205 
	C20.953442,44.960205 21.000000,44.999847 20.623285,45.042248 
	C20.364403,47.130753 20.482235,49.176853 20.600067,51.222958 
z"/>
<path fill="#ffff" opacity="1.000000" stroke="none" 
	d="
M123.399231,62.520378 
	C123.458405,59.046165 123.945648,55.938004 123.879730,52.841610 
	C123.767700,47.579380 123.119728,42.326775 123.057648,37.065872 
	C123.014481,33.407612 125.862839,33.120651 128.709427,33.141521 
	C131.630646,33.162937 134.638687,33.020878 134.796341,37.145229 
	C134.878143,39.285023 134.810745,41.430515 134.810745,43.701992 
	C136.495132,44.097252 137.886597,44.482197 139.300659,44.745850 
	C146.898666,46.162510 148.156708,45.354225 147.957947,37.635601 
	C147.836548,32.921215 150.464508,33.190147 153.656509,33.138897 
	C156.823013,33.088047 159.116333,33.159492 158.945877,37.487652 
	C158.644562,45.138420 158.650543,52.817696 158.940689,60.469391 
	C159.124252,65.309837 156.027451,64.644386 153.063202,64.854393 
	C149.683334,65.093842 147.673141,64.387108 147.986099,60.290001 
	C148.284454,56.383865 149.576431,52.191174 142.026688,53.753551 
	C133.847046,55.446285 132.826233,55.475651 134.632675,64.531418 
	C130.778336,64.407936 126.940689,66.408974 123.399231,62.520378 
M147.617218,52.061882 
	C148.036179,52.150135 148.455124,52.238392 149.178696,52.967518 
	C149.170074,54.919498 149.243973,56.876186 149.132904,58.822319 
	C148.978394,61.528988 149.562820,63.254276 152.853790,63.303112 
	C155.959305,63.349194 157.408157,62.507744 157.301270,59.109684 
	C157.097733,52.638149 157.175278,46.155521 157.245605,39.678688 
	C157.275177,36.955002 157.216843,34.916538 153.445572,34.883369 
	C149.688507,34.850327 148.892181,36.508530 149.099884,39.723614 
	C149.227432,41.698025 148.965881,43.697571 148.113327,45.842007 
	C147.073364,45.933643 146.033417,46.025280 144.125214,46.007172 
	C142.085129,46.036869 140.045059,46.066566 137.192490,45.981094 
	C129.317551,45.393875 135.335205,38.444656 132.286438,35.555103 
	C126.722763,34.530895 125.244339,34.794548 125.168983,37.546436 
	C124.939316,45.934155 125.085670,54.332172 125.085670,62.603256 
	C132.937134,63.866783 133.048233,63.867111 133.069168,56.778946 
	C133.077759,53.869877 133.615158,51.854046 137.909576,52.019260 
	C140.936890,51.984035 143.964203,51.948814 147.617218,52.061882 
z"/>
<path fill="#ffff" opacity="1.000000" stroke="none" 
	d="
M30.038448,46.980038 
	C30.038448,46.980038 30.522057,47.015644 30.977791,47.258724 
	C32.282600,47.332966 33.131676,47.164131 33.980751,46.995296 
	C33.980751,46.995296 33.998962,46.999706 34.364368,47.092106 
	C37.431786,47.753777 41.406654,47.464989 42.514751,49.108753 
	C43.910900,51.179821 42.966343,54.829353 43.029224,57.797920 
	C43.036224,58.128513 43.134384,58.509121 43.007843,58.781902 
	C42.343616,60.213772 41.620667,61.618393 40.918114,63.032478 
	C39.733860,61.987083 38.486427,61.003700 37.382713,59.879253 
	C36.224594,58.699379 35.204258,57.384262 34.123707,56.128246 
	C34.123707,56.128246 34.018353,56.019161 34.109501,55.668831 
	C33.438061,54.612976 32.675472,53.907448 31.510923,53.180603 
	C30.034494,53.133018 28.960030,53.106750 27.819691,52.848984 
	C27.588640,52.337925 27.380556,52.095142 27.130188,51.516201 
	C27.146366,50.149017 27.161919,49.154766 27.465965,48.049572 
	C28.515789,47.619099 29.277119,47.299568 30.038448,46.980038 
z"/>
<path fill="#ffff" opacity="1.000000" stroke="none" 
	d="
M33.592922,14.005672 
	C33.739269,14.369046 33.459175,14.783696 33.338390,15.240472 
	C31.257593,23.109661 26.083643,24.656591 18.724035,23.003584 
	C14.967688,22.159889 13.937027,24.230206 15.958183,27.609486 
	C17.044647,29.426003 17.946560,31.352900 18.971951,33.829292 
	C18.941732,34.589104 18.871309,34.749611 18.510715,34.934547 
	C17.834564,34.971909 17.448586,34.984840 17.062605,34.997772 
	C15.234324,30.122572 13.992694,24.984158 9.207579,21.722466 
	C8.354588,21.141039 8.802504,18.651098 8.649731,17.042408 
	C10.055229,17.175337 11.685262,16.920065 12.796040,17.562536 
	C13.704438,18.087954 13.993535,19.684090 14.709108,21.107792 
	C15.683704,21.107792 16.916599,20.824516 17.955282,21.153820 
	C24.635403,23.271681 29.707438,22.129780 31.996075,14.713477 
	C32.091969,14.402740 32.811581,14.284481 33.592922,14.005672 
z"/>
<path fill="#ffff" opacity="1.000000" stroke="none" 
	d="
M34.125793,56.494755 
	C35.204258,57.384262 36.224594,58.699379 37.382713,59.879253 
	C38.486427,61.003700 39.733860,61.987083 40.918114,63.032478 
	C41.620667,61.618393 42.343616,60.213772 43.007843,58.781902 
	C43.134384,58.509121 43.036224,58.128513 43.029224,57.797920 
	C42.966343,54.829353 43.910900,51.179821 42.514751,49.108753 
	C41.406654,47.464989 37.431786,47.753777 34.366859,47.085419 
	C36.743908,46.739685 39.512001,46.176533 42.208752,46.416180 
	C43.166862,46.501316 44.556404,48.468758 44.696907,49.697254 
	C45.054104,52.820492 44.950672,56.019279 44.771847,59.173100 
	C44.647755,61.361752 46.109703,64.533463 41.899097,64.756714 
	C38.550362,64.934250 35.276970,65.165337 36.098164,59.895798 
	C34.472546,60.845066 33.369835,61.488987 31.946613,62.258980 
	C32.460030,60.543785 33.293957,58.702522 34.125793,56.494755 
z"/>
<path fill="#ffff" opacity="1.000000" stroke="none" 
	d="
M11.673843,41.176781 
	C11.831377,43.767677 11.304709,46.544064 11.504681,49.267094 
	C12.460407,62.281345 21.487616,65.016335 30.940956,62.462090 
	C26.567768,66.336609 21.400757,65.536713 16.787514,62.904598 
	C10.879170,59.533566 8.754566,53.728466 9.357767,47.089760 
	C9.535921,45.129025 10.643065,43.252693 11.673843,41.176781 
z"/>
<path fill="#ffff" opacity="1.000000" stroke="none" 
	d="
M42.462467,39.933834 
	C42.134403,39.444260 41.806343,38.954681 41.300385,37.911888 
	C41.079185,36.939980 41.035889,36.521286 40.992592,36.102585 
	C44.396633,35.409294 47.800671,34.716003 51.925838,33.996101 
	C53.093033,33.323463 53.539097,32.677433 53.985161,32.031403 
	C53.985161,32.031403 54.013996,32.015282 54.407421,32.020454 
	C56.473343,31.682226 58.145836,31.338829 59.818333,30.995434 
	C59.818333,30.995434 59.993404,31.064150 60.086452,31.076763 
	C63.987415,31.821001 67.795334,32.552620 71.833649,33.639549 
	C69.423332,33.965626 66.755661,34.166466 64.147369,33.860687 
	C58.171677,33.160156 53.533516,35.361767 49.472382,39.943180 
	C49.295761,39.094193 49.445522,38.168526 49.707138,36.551514 
	C47.622257,37.538460 45.774773,38.413025 43.613182,39.668030 
	C43.024818,39.976574 42.745949,39.938358 42.462467,39.933834 
z"/>
<path fill="#ffff" opacity="1.000000" stroke="none" 
	d="
M42.105644,40.087242 
	C42.745949,39.938358 43.024818,39.976574 43.512253,40.053688 
	C39.793610,44.582897 37.004021,45.233723 31.948957,42.844246 
	C28.081503,41.016144 24.716341,42.063080 21.300694,44.832924 
	C22.318329,41.295345 26.929852,39.226460 31.791409,41.452816 
	C35.822536,43.298874 38.601589,41.962914 42.105644,40.087242 
z"/>
<path fill="#ffff" opacity="1.000000" stroke="none" 
	d="
M242.961456,35.633018 
	C238.942230,35.638844 234.917755,35.061123 230.886414,35.008194 
	C230.093369,34.997784 228.896255,36.905666 228.551239,38.118267 
	C227.974457,40.145432 227.934128,42.325226 227.430008,44.756195 
	C227.137878,44.095127 226.844879,43.058342 227.073349,42.153183 
	C227.828400,39.161907 228.418991,33.878254 229.707397,33.683990 
	C234.000168,33.036758 239.015244,31.218735 242.961456,35.633018 
z"/>
<path fill="#ffff" opacity="1.000000" stroke="none" 
	d="
M226.189148,64.331108 
	C228.727768,63.995625 231.523346,63.995625 234.917999,63.995625 
	C235.266449,60.462147 235.683228,57.400803 235.838684,54.326244 
	C235.989334,51.346958 235.871353,48.354084 236.798584,45.193161 
	C237.259903,47.213417 237.721222,49.233669 238.120911,51.662674 
	C237.691391,54.514019 236.888870,56.985790 237.050476,59.392838 
	C237.343155,63.752831 235.751282,65.553795 231.392380,64.953506 
	C229.761383,64.728897 228.095886,64.754875 226.189148,64.331108 
z"/>
<path fill="#ffff" opacity="1.000000" stroke="none" 
	d="
M46.991615,17.783257 
	C45.742901,17.678520 44.144623,17.557192 43.011765,16.767874 
	C40.507523,15.023045 38.237450,12.942135 35.501034,11.025249 
	C35.857109,9.964882 36.584003,8.877584 37.653656,8.187510 
	C38.360474,9.048912 38.724529,9.513088 39.088589,9.977265 
	C41.676792,12.472715 44.264999,14.968165 46.991615,17.783257 
z"/>
<path fill="#ffff" opacity="1.000000" stroke="none" 
	d="
M31.912886,53.201920 
	C32.675472,53.907448 33.438061,54.612976 34.062279,55.609501 
	C30.982441,56.209328 27.973133,57.017380 25.126202,56.630508 
	C23.543545,56.415443 22.231647,54.207874 20.835756,52.506454 
	C22.333614,53.098228 23.793438,54.081860 25.871544,55.348095 
	C28.673416,55.660435 31.410261,56.925503 31.912886,53.201920 
z"/>
<path fill="#ffff" opacity="1.000000" stroke="none" 
	d="
M253.216583,56.873909 
	C253.268921,53.622494 253.664825,50.235298 254.060730,46.848103 
	C254.451126,46.853168 254.841507,46.858238 255.231888,46.863304 
	C255.540619,52.217922 255.849350,57.572540 256.193848,63.380993 
	C255.612244,60.781609 254.994888,57.728386 254.344467,54.511593 
	C254.054840,55.333817 253.807510,56.035973 253.216583,56.873909 
z"/>
<path fill="#ffff" opacity="1.000000" stroke="none" 
	d="
M31.510923,53.180603 
	C31.410261,56.925503 28.673416,55.660435 26.220722,55.412132 
	C26.077084,52.573166 26.202551,49.952759 26.685886,47.443451 
	C27.088327,47.756535 27.132898,47.958523 27.177471,48.160511 
	C27.161919,49.154766 27.146366,50.149017 27.138020,51.777222 
	C27.392004,52.634277 27.638784,52.857380 27.885563,53.080482 
	C28.960030,53.106750 30.034494,53.133018 31.510923,53.180603 
z"/>
<path fill="#ffff" opacity="1.000000" stroke="none" 
	d="
M246.712708,45.057835 
	C246.770706,47.023045 246.521118,49.163986 246.271515,51.304932 
	C245.816620,51.299309 245.361725,51.293686 244.906845,51.288067 
	C244.525055,48.149864 244.143280,45.011665 243.859772,41.443626 
	C244.297760,42.172459 244.546967,43.370659 245.026398,44.468288 
	C245.193604,44.851082 245.929108,44.985641 246.712708,45.057835 
z"/>
<path fill="#ffff" opacity="1.000000" stroke="none" 
	d="
M16.752121,35.154106 
	C17.448586,34.984840 17.834564,34.971909 18.552246,35.188148 
	C18.880571,35.588417 18.877192,35.759514 18.873814,35.930611 
	C16.813643,37.603817 14.753474,39.277023 12.356693,40.985603 
	C13.493935,39.117462 14.967787,37.213951 16.752121,35.154106 
z"/>
<path fill="#ffff" opacity="1.000000" stroke="none" 
	d="
M47.772060,42.296104 
	C48.184429,46.074257 48.214428,50.039547 48.158623,54.455704 
	C47.845108,50.765461 47.617401,46.624352 47.772060,42.296104 
z"/>
<path fill="#ffff" opacity="1.000000" stroke="none" 
	d="
M20.714771,50.869087 
	C20.482235,49.176853 20.364403,47.130753 20.600365,45.021774 
	C20.912600,46.811008 20.871038,48.663113 20.714771,50.869087 
z"/>
<path fill="#ffff" opacity="1.000000" stroke="none" 
	d="
M251.254684,63.914459 
	C251.305038,62.139420 251.729477,60.232491 252.399048,58.053734 
	C252.305740,59.782124 251.967255,61.782345 251.254684,63.914459 
z"/>
<path fill="#ffff" opacity="1.000000" stroke="none" 
	d="
M27.465965,48.049572 
	C27.132898,47.958523 27.088327,47.756535 27.025776,47.244461 
	C27.902483,46.785324 28.797173,46.636269 29.865154,46.733627 
	C29.277119,47.299568 28.515789,47.619099 27.465965,48.049572 
z"/>
<path fill="#ffff" opacity="1.000000" stroke="none" 
	d="
M238.958344,57.384392 
	C239.377274,58.437508 239.774796,59.886326 240.104095,61.732632 
	C239.669556,60.680111 239.303253,59.230103 238.958344,57.384392 
z"/>
<path fill="#ffff" opacity="1.000000" stroke="none" 
	d="
M243.983307,40.637550 
	C243.575745,39.616871 243.179077,38.201736 242.869797,36.402115 
	C243.302856,37.426117 243.648529,38.834610 243.983307,40.637550 
z"/>
<path fill="#ffff" opacity="1.000000" stroke="none" 
	d="
M238.133423,53.196186 
	C238.543457,53.977528 238.840744,55.137398 239.069183,56.660107 
	C238.673798,55.873535 238.347229,54.724121 238.133423,53.196186 
z"/>
<path fill="#ffff" opacity="1.000000" stroke="none" 
	d="
M52.770157,13.107777 
	C52.596889,13.690164 52.129517,14.352890 51.330307,15.032004 
	C51.490997,14.428300 51.983524,13.808208 52.770157,13.107777 
z"/>
<path fill="#ffff" opacity="1.000000" stroke="none" 
	d="
M33.605804,46.963211 
	C33.131676,47.164131 32.282600,47.332966 31.214075,47.313087 
	C31.740034,47.059956 32.485447,46.995541 33.605804,46.963211 
z"/>
<path fill="#ffff" opacity="1.000000" stroke="none" 
	d="
M39.034615,9.662975 
	C38.724529,9.513088 38.360474,9.048912 37.971207,8.274488 
	C38.125034,7.783293 38.304066,7.602345 38.483097,7.421395 
	C38.648945,8.063825 38.814793,8.706254 39.034615,9.662975 
z"/>
<path fill="#ffff" opacity="1.000000" stroke="none" 
	d="
M49.765820,16.145617 
	C49.578110,16.727137 49.097374,17.391863 48.275944,18.071388 
	C48.447765,17.467066 48.960278,16.847944 49.765820,16.145617 
z"/>
<path fill="#ffff" opacity="1.000000" stroke="none" 
	d="
M48.265549,56.109940 
	C48.591202,56.064774 48.822609,56.284317 49.037277,56.756317 
	C48.737461,56.797401 48.454380,56.586025 48.265549,56.109940 
z"/>
<path fill="#ffff" opacity="1.000000" stroke="none" 
	d="
M48.779221,40.175056 
	C48.998837,40.440342 48.944687,40.748871 48.649834,41.135017 
	C48.441238,40.881191 48.473343,40.549747 48.779221,40.175056 
z"/>
<path fill="#ffff" opacity="1.000000" stroke="none" 
	d="
M50.791878,15.121191 
	C50.890305,15.360809 50.735291,15.652770 50.326172,15.996226 
	C50.227524,15.756326 50.382980,15.464930 50.791878,15.121191 
z"/>
<path fill="#ffff" opacity="1.000000" stroke="none" 
	d="
M60.318699,29.736214 
	C60.104282,26.910072 60.172752,23.790426 60.461651,20.345840 
	C60.655251,23.161503 60.628418,26.302109 60.318699,29.736214 
z"/>
<path fill="#ffff" opacity="1.000000" stroke="none" 
	d="
M59.908405,30.764267 
	C58.145836,31.338829 56.473343,31.682226 54.418461,32.008163 
	C55.785725,31.329424 57.535374,30.668139 59.665527,30.023026 
	C60.046028,30.039196 59.998478,30.533102 59.908405,30.764267 
z"/>
<path fill="#ffff" opacity="1.000000" stroke="none" 
	d="
M60.063484,10.654835 
	C59.283825,10.971668 58.478729,10.973764 57.271950,10.931576 
	C57.926193,10.704893 58.982121,10.522495 60.063484,10.654835 
z"/>
<path fill="#ffff" opacity="1.000000" stroke="none" 
	d="
M60.750420,16.677122 
	C60.448856,15.879039 60.238739,14.721031 60.098831,13.193824 
	C60.393314,13.988815 60.617592,15.153007 60.750420,16.677122 
z"/>
<path fill="#ffff" opacity="1.000000" stroke="none" 
	d="
M109.116623,42.613831 
	C111.052948,43.078194 112.543427,43.536629 114.033897,43.995064 
	C113.989677,44.148792 113.945450,44.302525 113.901222,44.456253 
	C108.876122,44.456253 103.851028,44.456253 98.825928,44.456253 
	C101.850853,40.515945 105.280075,41.765484 109.116623,42.613831 
z"/>
<path fill="#ffff" opacity="1.000000" stroke="none" 
	d="
M73.192871,50.715576 
	C71.125420,56.842945 66.260170,55.403793 62.282829,54.932262 
	C60.611019,54.734062 58.337849,52.451603 57.862595,50.702427 
	C56.599770,46.054630 58.853386,43.297256 63.307545,42.962212 
	C71.388733,42.354347 73.102753,43.619698 73.192871,50.715576 
z"/>
<path fill="#F8F9DF" opacity="1.000000" stroke="none" 
	d="
M19.317877,35.953281 
	C18.877192,35.759514 18.880571,35.588417 18.842419,35.163719 
	C18.871309,34.749611 18.941732,34.589104 19.079712,34.172966 
	C26.381956,32.489365 33.462803,32.681240 40.623352,36.012215 
	C41.035889,36.521286 41.079185,36.939980 41.124557,37.675297 
	C34.189636,35.363918 27.123558,34.103905 19.317877,35.953281 
z"/>
<path fill="#ffff" opacity="1.000000" stroke="none" 
	d="
M53.665970,32.056087 
	C53.539097,32.677433 53.093033,33.323463 52.318336,33.979836 
	C52.442070,33.353706 52.894424,32.717239 53.665970,32.056087 
z"/>
<path fill="#ffff" opacity="1.000000" stroke="none" 
	d="
M137.009506,51.898666 
	C133.615158,51.854046 133.077759,53.869877 133.069168,56.778946 
	C133.048233,63.867111 132.937134,63.866783 125.085670,62.603256 
	C125.085670,54.332172 124.939316,45.934155 125.168983,37.546436 
	C125.244339,34.794548 126.722763,34.530895 132.286438,35.555103 
	C135.335205,38.444656 129.317551,45.393875 137.550690,46.404205 
	C137.609085,48.517765 137.309296,50.208218 137.009506,51.898666 
z"/>
<path fill="#ffff" opacity="1.000000" stroke="none" 
	d="
M148.879044,45.685829 
	C148.965881,43.697571 149.227432,41.698025 149.099884,39.723614 
	C148.892181,36.508530 149.688507,34.850327 153.445572,34.883369 
	C157.216843,34.916538 157.275177,36.955002 157.245605,39.678688 
	C157.175278,46.155521 157.097733,52.638149 157.301270,59.109684 
	C157.408157,62.507744 155.959305,63.349194 152.853790,63.303112 
	C149.562820,63.254276 148.978394,61.528988 149.132904,58.822319 
	C149.243973,56.876186 149.170074,54.919498 149.066559,52.169952 
	C148.929291,49.476864 148.904160,47.581348 148.879044,45.685829 
z"/>
<path fill="#ffff" opacity="1.000000" stroke="none" 
	d="
M137.459534,51.958961 
	C137.309296,50.208218 137.609085,48.517765 137.956940,46.461788 
	C140.045059,46.066566 142.085129,46.036869 144.604797,46.404480 
	C145.720093,48.505718 146.355804,50.209652 146.991516,51.913589 
	C143.964203,51.948814 140.936890,51.984035 137.459534,51.958961 
z"/>
<path fill="#ffff" opacity="1.000000" stroke="none" 
	d="
M147.304367,51.987736 
	C146.355804,50.209652 145.720093,48.505718 145.038910,46.459351 
	C146.033417,46.025280 147.073364,45.933643 148.496185,45.763916 
	C148.904160,47.581348 148.929291,49.476864 148.914246,51.849518 
	C148.455124,52.238392 148.036179,52.150135 147.304367,51.987736 
z"/>
<path fill="#ffff" opacity="1.000000" stroke="none" 
	d="
M27.819691,52.848984 
	C27.638784,52.857380 27.392004,52.634277 27.137394,52.150154 
	C27.380556,52.095142 27.588640,52.337925 27.819691,52.848984 
z"/>
</svg>